<svg width="142" height="21" viewBox="0 0 142 21" fill="none" xmlns="http://www.w3.org/2000/svg">
<path d="M17.9341 7.93199L17.0346 12.1297H20.4963V15.5369H16.2986L15.3174 20.1707H11.6921L12.6734 15.5369H7.71247L6.73119 20.1707H3.13317L4.11445 15.5369H-0.00146484V12.1297H4.85041L5.74991 7.93199H1.66126V4.52478H6.48587L7.43989 0H11.0379L10.0839 4.52478H15.0448L15.9988 0H19.6241L18.6701 4.52478H22.1591V7.93199H17.9341ZM14.3088 7.93199H9.34793L8.44843 12.1297H13.4093L14.3088 7.93199Z" fill="white"/>
<path d="M36.8237 16.9543H45.3826V20.1707H32.408V17.2269L40.9124 4.36123H32.408V1.14482H45.3826V4.08866L36.8237 16.9543Z" fill="white"/>
<path d="M58.0076 20.3615C56.2268 20.3615 54.5913 19.9436 53.1012 19.1077C51.6111 18.2717 50.43 17.1178 49.5577 15.6459C48.6855 14.1558 48.2494 12.4749 48.2494 10.6032C48.2494 8.74972 48.6855 7.087 49.5577 5.61509C50.43 4.125 51.6111 2.962 53.1012 2.1261C54.5913 1.2902 56.2268 0.872247 58.0076 0.872247C59.8066 0.872247 61.4421 1.2902 62.914 2.1261C64.4041 2.962 65.5762 4.125 66.4303 5.61509C67.3025 7.087 67.7386 8.74972 67.7386 10.6032C67.7386 12.4749 67.3025 14.1558 66.4303 15.6459C65.5762 17.1178 64.4041 18.2717 62.914 19.1077C61.4239 19.9436 59.7885 20.3615 58.0076 20.3615ZM58.0076 16.9543C59.1525 16.9543 60.161 16.6999 61.0332 16.1911C61.9055 15.6641 62.5869 14.9191 63.0776 13.9559C63.5682 12.9928 63.8135 11.8753 63.8135 10.6032C63.8135 9.33122 63.5682 8.22274 63.0776 7.27781C62.5869 6.3147 61.9055 5.57874 61.0332 5.06993C60.161 4.56112 59.1525 4.30672 58.0076 4.30672C56.8628 4.30672 55.8452 4.56112 54.9548 5.06993C54.0825 5.57874 53.4011 6.3147 52.9104 7.27781C52.4198 8.22274 52.1745 9.33122 52.1745 10.6032C52.1745 11.8753 52.4198 12.9928 52.9104 13.9559C53.4011 14.9191 54.0825 15.6641 54.9548 16.1911C55.8452 16.6999 56.8628 16.9543 58.0076 16.9543Z" fill="white"/>
<path d="M81.9169 10.4124C82.989 10.6123 83.8704 11.1484 84.5609 12.0206C85.2514 12.8929 85.5967 13.8923 85.5967 15.019C85.5967 16.0366 85.3423 16.9361 84.8335 17.7175C84.3428 18.4807 83.625 19.0804 82.6801 19.5165C81.7352 19.9526 80.6176 20.1707 79.3274 20.1707H71.1228V1.14482H78.9731C80.2633 1.14482 81.3717 1.3538 82.2985 1.77175C83.2434 2.1897 83.9521 2.7712 84.4246 3.51624C84.9152 4.26129 85.1606 5.10628 85.1606 6.05121C85.1606 7.15969 84.8607 8.08645 84.261 8.8315C83.6796 9.57654 82.8982 10.1035 81.9169 10.4124ZM74.9389 8.99504H78.4279C79.3365 8.99504 80.0361 8.79515 80.5267 8.39537C81.0174 7.97742 81.2627 7.38684 81.2627 6.62362C81.2627 5.86041 81.0174 5.26982 80.5267 4.85187C80.0361 4.43392 79.3365 4.22494 78.4279 4.22494H74.9389V8.99504ZM78.7822 17.0633C79.709 17.0633 80.4268 16.8453 80.9356 16.4091C81.4626 15.973 81.7261 15.3552 81.7261 14.5556C81.7261 13.7379 81.4535 13.1019 80.9084 12.6476C80.3632 12.1751 79.6272 11.9389 78.7005 11.9389H74.9389V17.0633H78.7822Z" fill="white"/>
<path d="M100.85 16.5454H93.2719L92.018 20.1707H88.0111L94.8528 1.11756H99.2958L106.138 20.1707H102.103L100.85 16.5454ZM99.8137 13.4926L97.0607 5.53331L94.3077 13.4926H99.8137Z" fill="white"/>
<path d="M120.906 16.5454H113.329L112.075 20.1707H108.068L114.91 1.11756H119.353L126.194 20.1707H122.16L120.906 16.5454ZM119.87 13.4926L117.117 5.53331L114.364 13.4926H119.87Z" fill="white"/>
<path d="M140.931 1.82191L137.102 14.4259L133.995 13.5934L136.955 0.756634L140.931 1.82191ZM133.977 20.1918C133.31 20.0131 132.811 19.6631 132.48 19.1418C132.172 18.6076 132.1 18.0334 132.265 17.4191C132.429 16.8047 132.776 16.3521 133.306 16.0613C133.858 15.7576 134.467 15.6951 135.134 15.8739C135.783 16.0479 136.262 16.402 136.571 16.9361C136.884 17.4527 136.958 18.0181 136.793 18.6325C136.629 19.2468 136.279 19.7082 135.745 20.0166C135.216 20.3074 134.626 20.3658 133.977 20.1918Z" fill="white"/>
</svg>
