<svg width="24" height="24" viewBox="0 0 24 24" fill="none" xmlns="http://www.w3.org/2000/svg">
<path d="M12 21C16.9707 21 21 16.9707 21 12C21 7.0293 16.9707 3 12 3C7.0293 3 3 7.0293 3 12C3 16.9707 7.0293 21 12 21Z" stroke="black" stroke-width="2" stroke-linecap="round" stroke-linejoin="round"/>
<path d="M15 8.76923C14.315 8.13692 13.109 7.69754 12 7.66985M12 7.66985C10.68 7.63662 9.5 8.18769 9.5 9.69231C9.5 12.4615 15 11.0769 15 13.8462C15 15.4255 13.536 16.104 12 16.0532M12 7.66985V6M9 14.7692C9.644 15.5631 10.843 16.0154 12 16.0532M12 16.0532V18" stroke="black" stroke-width="2" stroke-linecap="round" stroke-linejoin="round"/>
</svg>
